<?xml version="1.0" encoding="UTF-8" standalone="no"?>
<!-- Created with Inkscape (http://www.inkscape.org/) -->

<svg
   xmlns:dc="http://purl.org/dc/elements/1.1/"
   xmlns:cc="http://creativecommons.org/ns#"
   xmlns:rdf="http://www.w3.org/1999/02/22-rdf-syntax-ns#"
   xmlns:svg="http://www.w3.org/2000/svg"
   xmlns="http://www.w3.org/2000/svg"
   xmlns:xlink="http://www.w3.org/1999/xlink"
   xmlns:sodipodi="http://sodipodi.sourceforge.net/DTD/sodipodi-0.dtd"
   xmlns:inkscape="http://www.inkscape.org/namespaces/inkscape"
   width="210mm"
   height="297mm"
   viewBox="0 0 210 297"
   version="1.1"
   id="svg8"
   inkscape:version="0.92.3 (2405546, 2018-03-11)"
   sodipodi:docname="onoff.svg">
  <defs
     id="defs2">
    <color-profile
       name="Best-RGB"
       xlink:href="/usr/share/color/icc/colord/BestRGB.icc"
       id="color-profile3713" />
  </defs>
  <sodipodi:namedview
     id="base"
     pagecolor="#ffffff"
     bordercolor="#666666"
     borderopacity="1.0"
     inkscape:pageopacity="0.0"
     inkscape:pageshadow="2"
     inkscape:zoom="1.8844256"
     inkscape:cx="336.22961"
     inkscape:cy="727.94378"
     inkscape:document-units="mm"
     inkscape:current-layer="layer1"
     showgrid="false"
     inkscape:window-width="1600"
     inkscape:window-height="836"
     inkscape:window-x="0"
     inkscape:window-y="27"
     inkscape:window-maximized="1" />
  <metadata
     id="metadata5">
    <rdf:RDF>
      <cc:Work
         rdf:about="">
        <dc:format>image/svg+xml</dc:format>
        <dc:type
           rdf:resource="http://purl.org/dc/dcmitype/StillImage" />
        <dc:title></dc:title>
      </cc:Work>
    </rdf:RDF>
  </metadata>
  <g
     inkscape:label="Layer 1"
     inkscape:groupmode="layer"
     id="layer1">
    <path
       style="fill:#d40000;stroke-width:0.26458335"
       d="M 105.99974,65.000001 A 35.999891,35.999929 0 0 0 70,101.00001 35.999891,35.999929 0 0 0 105.99974,137 35.999891,35.999929 0 0 0 142,101.00001 35.999891,35.999929 0 0 0 105.99974,65.000001 Z"
       id="path3715"
       inkscape:connector-curvature="0"
       inkscape:export-filename="/home/thomas/usr/git/gymcalc/src/de.gymcalc.rcp.juriclient/icons/onoff.png"
       inkscape:export-xdpi="5.6399999"
       inkscape:export-ydpi="5.6399999" />
    <path
       style="fill:#ffffff;stroke-width:0.26458338"
       d="M 105.99978,71.000003 A 29.999909,29.999942 0 0 0 76,101.00001 29.999909,29.999942 0 0 0 105.99978,131 29.999909,29.999942 0 0 0 136,101.00001 29.999909,29.999942 0 0 0 105.99978,71.000003 Z"
       id="path3715-3"
       inkscape:connector-curvature="0"
       inkscape:export-filename="/home/thomas/usr/git/gymcalc/src/de.gymcalc.rcp.juriclient/icons/onoff.png"
       inkscape:export-xdpi="5.6399999"
       inkscape:export-ydpi="5.6399999" />
    <path
       inkscape:connector-curvature="0"
       id="path3737"
       d="M 105.99983,77.000001 A 23.999927,23.999953 0 0 0 82,101.00001 23.999927,23.999953 0 0 0 105.99983,125 23.999927,23.999953 0 0 0 130,101.00001 23.999927,23.999953 0 0 0 105.99983,77.000001 Z"
       style="fill:#d40000;stroke-width:0.26458335"
       inkscape:export-filename="/home/thomas/usr/git/gymcalc/src/de.gymcalc.rcp.juriclient/icons/onoff.png"
       inkscape:export-xdpi="5.6399999"
       inkscape:export-ydpi="5.6399999" />
    <path
       inkscape:connector-curvature="0"
       id="path3739"
       d="M 105.99998,88 A 2.9999909,2.9999942 0 0 0 103,91 2.9999909,2.9999942 0 0 0 105.99998,94 2.9999909,2.9999942 0 0 0 109,91 2.9999909,2.9999942 0 0 0 105.99998,88 Z"
       style="fill:#ffffff;stroke-width:0.26458338"
       inkscape:export-filename="/home/thomas/usr/git/gymcalc/src/de.gymcalc.rcp.juriclient/icons/onoff.png"
       inkscape:export-xdpi="5.6399999"
       inkscape:export-ydpi="5.6399999" />
    <path
       style="fill:#ffffff;stroke-width:0.26458338"
       d="M 105.99998,108 A 2.9999909,2.9999942 0 0 0 103,111 a 2.9999909,2.9999942 0 0 0 2.99998,3 2.9999909,2.9999942 0 0 0 3.00002,-3 2.9999909,2.9999942 0 0 0 -3.00002,-3 z"
       id="path3741"
       inkscape:connector-curvature="0"
       inkscape:export-filename="/home/thomas/usr/git/gymcalc/src/de.gymcalc.rcp.juriclient/icons/onoff.png"
       inkscape:export-xdpi="5.6399999"
       inkscape:export-ydpi="5.6399999" />
    <rect
       style="fill:#ffffff;stroke-width:0.26458332"
       id="rect3743"
       width="6"
       height="20"
       x="103"
       y="91"
       inkscape:export-filename="/home/thomas/usr/git/gymcalc/src/de.gymcalc.rcp.juriclient/icons/onoff.png"
       inkscape:export-xdpi="5.6399999"
       inkscape:export-ydpi="5.6399999" />
  </g>
</svg>
